<svg xmlns="http://www.w3.org/2000/svg" xmlns:xlink="http://www.w3.org/1999/xlink" width="500" zoomAndPan="magnify" viewBox="0 0 375 374.999991" height="500" preserveAspectRatio="xMidYMid meet" version="1.0"><defs><clipPath id="dc23266628"><path d="M 51.371094 193.09375 L 276 193.09375 L 276 355.882812 L 51.371094 355.882812 Z M 51.371094 193.09375 " clip-rule="nonzero"/></clipPath><clipPath id="7a288dd765"><path d="M 65.25 223 L 163 223 L 163 355.882812 L 65.25 355.882812 Z M 65.25 223 " clip-rule="nonzero"/></clipPath></defs><path fill="#000000" d="M 187.117188 191.097656 C 188.824219 181.152344 189.578125 170.976562 189.90625 164.195312 C 190.558594 150.898438 191.007812 137.890625 189.375 124.953125 C 187.460938 109.796875 182.933594 97.621094 175.539062 87.742188 C 170.566406 81.101562 164.015625 75.042969 156.585938 70.214844 C 148.789062 65.152344 140.328125 61.667969 132.121094 60.152344 C 120.011719 57.90625 108.640625 59.929688 99.226562 65.996094 C 85.773438 74.660156 79.660156 89.585938 81.546875 109.148438 C 82.933594 123.484375 88.800781 140.332031 97.246094 154.226562 C 113.152344 180.390625 136.355469 201.171875 158.789062 221.269531 C 159.960938 222.320312 161.132812 223.367188 162.296875 224.410156 L 164.539062 226.425781 L 167.496094 225.816406 C 171.777344 224.9375 175.496094 222.09375 178.542969 217.371094 C 182.222656 211.660156 185.109375 202.820312 187.117188 191.097656 " fill-opacity="1" fill-rule="nonzero"/><path fill="#ffffff" d="M 166.539062 218.96875 C 165.488281 218.023438 164.433594 217.082031 163.382812 216.136719 C 141.316406 196.375 118.5 175.941406 103.121094 150.644531 C 95.191406 137.597656 89.683594 121.835938 88.394531 108.488281 C 87.625 100.496094 88.324219 93.421875 90.472656 87.453125 C 92.84375 80.863281 97.042969 75.589844 102.953125 71.78125 C 107.125 69.09375 111.757812 67.347656 116.71875 66.585938 C 121.382812 65.871094 126.34375 66.023438 131.464844 67.035156 C 138.703125 68.46875 146.183594 71.625 153.105469 76.167969 C 159.75 80.527344 165.605469 85.957031 170.03125 91.867188 C 176.695312 100.769531 180.789062 111.878906 182.546875 125.820312 C 184.113281 138.203125 183.671875 150.882812 183.039062 163.859375 C 182.710938 170.449219 181.984375 180.328125 180.339844 189.933594 C 178.488281 200.738281 175.9375 208.710938 172.761719 213.636719 C 170.875 216.5625 168.78125 218.351562 166.539062 218.96875 " fill-opacity="1" fill-rule="nonzero"/><g clip-path="url(#dc23266628)"><path fill="#000000" d="M 275.578125 275.15625 C 275.265625 278.441406 274.714844 281.664062 273.933594 284.808594 L 273.886719 284.984375 C 272.089844 292.101562 269.066406 298.894531 264.894531 305.230469 C 264.273438 306.175781 263.625 307.109375 262.953125 308.03125 C 255.6875 317.988281 246.363281 326.589844 235.183594 333.675781 C 233.382812 334.816406 231.535156 335.917969 229.644531 336.976562 C 222.488281 340.976562 214.714844 344.382812 206.40625 347.160156 C 200.65625 349.082031 194.652344 350.699219 188.417969 352.007812 C 180.070312 353.757812 171.421875 354.925781 162.65625 355.488281 C 161.261719 355.578125 159.859375 355.648438 158.460938 355.707031 C 148.9375 356.105469 136.539062 355.941406 123.46875 353.957031 C 115.761719 352.78125 107.824219 350.976562 100.105469 348.277344 C 89.785156 344.667969 80.90625 339.785156 73.71875 333.769531 C 65.484375 326.875 59.382812 318.429688 55.578125 308.667969 C 54.570312 306.089844 53.761719 303.402344 53.167969 300.6875 C 51.855469 294.699219 51.558594 288.421875 52.28125 282.023438 C 53 275.683594 54.714844 269.21875 57.390625 262.804688 C 59.578125 257.550781 62.371094 252.390625 65.746094 247.339844 C 70.777344 239.796875 77.113281 232.5 84.695312 225.519531 C 85.597656 224.691406 86.503906 223.878906 87.417969 223.078125 C 93.113281 218.105469 99.042969 213.738281 105.195312 209.988281 C 112.195312 205.71875 119.480469 202.25 127.023438 199.59375 C 130.894531 198.230469 134.832031 197.078125 138.835938 196.148438 C 139.648438 195.957031 140.46875 195.773438 141.289062 195.601562 C 147.5625 194.285156 153.988281 193.488281 160.554688 193.210938 C 182.617188 192.261719 206.265625 197.15625 231.121094 207.839844 C 242.554688 212.75 252.015625 218.976562 259.25 226.34375 C 267.988281 235.246094 273.296875 245.640625 275.035156 257.25 C 275.4375 259.964844 275.699219 262.644531 275.816406 265.296875 C 275.96875 268.636719 275.886719 271.925781 275.578125 275.15625 " fill-opacity="1" fill-rule="nonzero"/></g><path fill="#ffcd00" d="M 257.78125 304.25 C 257.105469 305.175781 256.414062 306.082031 255.710938 306.976562 C 232.882812 335.808594 193.726562 347.828125 158.195312 349.304688 C 138.3125 350.132812 114.320312 348.058594 94.714844 339.246094 C 91.203125 337.667969 87.828125 335.875 84.648438 333.84375 C 74.480469 327.347656 66.25 318.417969 61.539062 306.339844 C 60.648438 304.058594 59.945312 301.714844 59.421875 299.320312 C 54.777344 278.089844 64.535156 252.78125 89.03125 230.234375 C 131.957031 190.722656 182.800781 194.046875 228.597656 213.726562 C 247.976562 222.054688 265.410156 236.191406 268.703125 258.195312 C 269.023438 260.332031 269.242188 262.429688 269.367188 264.484375 C 270.316406 280.035156 265.816406 293.234375 257.78125 304.25 " fill-opacity="1" fill-rule="nonzero"/><path fill="#000000" d="M 64.15625 316.519531 L 21.113281 332.105469 C 19.730469 332.816406 20.101562 335.140625 21.605469 335.183594 L 82.234375 332.886719 L 64.15625 316.519531 " fill-opacity="1" fill-rule="nonzero"/><g clip-path="url(#7a288dd765)"><path fill="#000000" d="M 162.65625 355.488281 C 161.261719 355.578125 159.859375 355.648438 158.460938 355.707031 C 148.9375 356.105469 136.539062 355.941406 123.46875 353.957031 C 102.707031 335.53125 85.390625 311.785156 75.851562 288.210938 C 70.414062 274.773438 67.046875 260.933594 65.746094 247.339844 C 70.777344 239.796875 77.117188 232.5 84.695312 225.519531 C 85.597656 224.691406 86.503906 223.878906 87.417969 223.078125 C 85.390625 241.097656 88.234375 260.964844 95.964844 280.058594 C 105.839844 304.453125 125.386719 329.167969 148.261719 346.167969 C 153.050781 349.726562 157.882812 352.851562 162.65625 355.488281 " fill-opacity="1" fill-rule="nonzero"/></g><path fill="#000000" d="M 235.183594 333.675781 C 233.382812 334.8125 231.539062 335.917969 229.644531 336.976562 C 222.488281 340.976562 214.714844 344.382812 206.40625 347.15625 C 202.480469 345.453125 198.507812 343.519531 194.503906 341.359375 C 166.0625 326.03125 140 301.355469 124.789062 275.34375 C 112.59375 254.503906 105.929688 231.71875 105.195312 209.988281 C 112.195312 205.71875 119.476562 202.25 127.023438 199.59375 C 125.546875 220.394531 131.25 243.40625 143.515625 264.375 C 156.800781 287.085938 179.710938 308.71875 204.796875 322.238281 C 215.300781 327.898438 225.710938 331.808594 235.183594 333.675781 " fill-opacity="1" fill-rule="nonzero"/><path fill="#000000" d="M 273.933594 284.808594 L 273.886719 284.984375 C 272.089844 292.101562 269.070312 298.894531 264.894531 305.230469 C 261.054688 304.4375 257.144531 303.46875 253.171875 302.328125 C 222.117188 293.40625 191.40625 274.839844 171.011719 252.664062 C 155.496094 235.789062 144.472656 216.140625 138.835938 196.148438 C 139.648438 195.957031 140.46875 195.777344 141.289062 195.605469 C 147.5625 194.289062 153.988281 193.488281 160.554688 193.207031 C 165.492188 208.902344 174.523438 224.40625 186.984375 237.957031 C 204.792969 257.324219 231.777344 273.582031 259.160156 281.453125 C 264.199219 282.898438 269.144531 284.023438 273.933594 284.808594 " fill-opacity="1" fill-rule="nonzero"/><path fill="#000000" d="M 172.761719 219.410156 C 173.246094 211.527344 171.125 200.894531 166.46875 187.8125 C 162.503906 176.691406 157.4375 165.871094 153.886719 158.753906 C 146.921875 144.804688 139.921875 131.265625 130.839844 119.011719 C 120.226562 104.683594 108.671875 94.890625 95.511719 89.078125 C 88.144531 85.824219 79.710938 83.566406 71.125 82.554688 C 57.804688 80.976562 44.894531 82.355469 33.792969 86.53125 C 27.722656 88.816406 22.304688 91.910156 17.6875 95.734375 C 12.710938 99.855469 8.65625 104.832031 5.652344 110.519531 C 1 119.316406 -0.523438 128.734375 1.117188 138.511719 C 2.539062 146.960938 6.308594 155.632812 12.332031 164.285156 C 21.941406 178.089844 37.5625 191.886719 54.117188 201.199219 C 85.351562 218.761719 120.984375 226.652344 155.441406 234.285156 C 157.242188 234.683594 159.039062 235.082031 160.828125 235.480469 C 161.042969 235.527344 161.261719 235.566406 161.476562 235.589844 C 163.289062 235.804688 165.121094 235.242188 166.5 234.042969 C 170.261719 230.773438 172.371094 225.847656 172.761719 219.410156 " fill-opacity="1" fill-rule="nonzero"/><path fill="#ffffff" d="M 164.535156 223.296875 C 163.738281 226.074219 160.933594 227.765625 158.109375 227.140625 C 157.761719 227.0625 157.421875 226.988281 157.074219 226.910156 C 123.152344 219.398438 88.074219 211.628906 57.816406 194.609375 C 42.203125 185.832031 27.515625 172.878906 18.523438 159.964844 C 13.144531 152.242188 9.792969 144.597656 8.5625 137.261719 C 7.203125 129.15625 8.46875 121.347656 12.324219 114.054688 C 15.046875 108.902344 18.777344 104.445312 23.414062 100.816406 C 27.773438 97.398438 32.933594 94.703125 38.753906 92.789062 C 46.976562 90.089844 56.445312 89.011719 66.136719 89.671875 C 75.4375 90.308594 84.542969 92.492188 92.464844 95.988281 C 104.394531 101.261719 114.964844 110.261719 124.777344 123.507812 C 133.492188 135.277344 140.328125 148.492188 147.132812 162.128906 C 150.59375 169.0625 155.523438 179.582031 159.355469 190.351562 C 163.671875 202.464844 165.648438 212.089844 165.230469 218.953125 C 165.132812 220.566406 164.898438 222.011719 164.535156 223.296875 " fill-opacity="1" fill-rule="nonzero"/><path fill="#050000" d="M 269.402344 265.125 C 269.394531 264.914062 269.382812 264.699219 269.367188 264.484375 C 269.382812 264.699219 269.394531 264.914062 269.402344 265.125 " fill-opacity="1" fill-rule="nonzero"/><path fill="#e5b400" d="M 269.421875 265.457031 C 269.238281 265.457031 269.058594 265.457031 268.882812 265.457031 C 269.046875 265.125 269.210938 264.804688 269.367188 264.484375 C 269.382812 264.699219 269.394531 264.914062 269.402344 265.125 C 269.410156 265.238281 269.414062 265.347656 269.421875 265.457031 " fill-opacity="1" fill-rule="nonzero"/><path fill="#000000" d="M 173.460938 179.980469 C 174.183594 158.339844 182.84375 137.453125 197.851562 121.164062 C 212.539062 105.226562 232.699219 94.277344 254.625 90.339844 C 261.976562 89.019531 269.539062 88.480469 277.09375 88.730469 C 303.835938 89.621094 328.675781 100.246094 347.039062 118.636719 C 365.535156 137.160156 375.25 161.332031 374.402344 186.699219 C 373.71875 207.234375 366.011719 225.332031 352.105469 239.035156 C 339.257812 251.691406 321.417969 260.371094 300.503906 264.125 C 299.71875 264.265625 298.929688 264.398438 298.132812 264.527344 C 296.089844 264.851562 294.023438 265.132812 291.933594 265.363281 C 285.199219 266.117188 278.246094 266.378906 271.167969 266.140625 C 264.277344 265.910156 257.5625 265.210938 251.089844 264.066406 C 248.988281 263.699219 246.914062 263.277344 244.871094 262.816406 C 228.117188 259.023438 213.242188 252.148438 201.597656 242.65625 C 182.34375 226.957031 172.613281 205.28125 173.460938 179.980469 " fill-opacity="1" fill-rule="nonzero"/><path fill="#ffcd00" d="M 181.023438 180.230469 C 182.628906 132.160156 225.527344 94.585938 276.84375 96.300781 C 328.15625 98.015625 368.449219 138.378906 366.84375 186.445312 C 365.238281 234.519531 322.734375 260.292969 271.421875 258.574219 C 220.105469 256.859375 179.414062 228.304688 181.023438 180.230469 " fill-opacity="1" fill-rule="nonzero"/><path fill="#000000" d="M 208.664062 38.964844 C 208.394531 37.339844 209.4375 35.785156 211.046875 35.425781 L 211.210938 35.394531 C 222.109375 33.574219 231.304688 36.339844 238.542969 43.605469 C 245.246094 50.332031 249.949219 60.878906 252.140625 74.097656 C 254.078125 85.808594 253.960938 99.261719 251.804688 111.980469 C 251.621094 113.050781 250.914062 113.929688 249.910156 114.335938 C 249.75 114.402344 249.589844 114.453125 249.421875 114.492188 C 249.027344 114.578125 248.628906 114.585938 248.226562 114.519531 C 247.410156 114.382812 246.699219 113.933594 246.21875 113.257812 C 245.738281 112.578125 245.550781 111.761719 245.6875 110.941406 C 247.664062 99.292969 247.84375 86.90625 246.191406 76.066406 C 244.308594 63.714844 240.144531 54.003906 234.148438 47.988281 C 228.410156 42.226562 221.039062 40.050781 212.234375 41.519531 C 210.546875 41.800781 208.945312 40.652344 208.664062 38.964844 " fill-opacity="1" fill-rule="nonzero"/><path fill="#000000" d="M 189.941406 36.90625 C 189.882812 36.308594 189.867188 35.710938 189.898438 35.113281 C 190.050781 31.980469 191.40625 28.898438 193.816406 26.289062 C 196.589844 23.289062 200.585938 21.082031 205.070312 20.082031 C 206.074219 19.855469 207.105469 19.6875 208.140625 19.585938 C 213.347656 19.070312 218.410156 20.148438 222.394531 22.617188 C 223.484375 23.289062 224.457031 24.046875 225.304688 24.871094 C 227.65625 27.144531 229.070312 29.945312 229.375 33.007812 C 229.511719 34.382812 229.40625 35.765625 229.082031 37.113281 C 228.609375 39.082031 227.664062 40.984375 226.277344 42.714844 C 226.03125 43.023438 225.773438 43.328125 225.5 43.621094 C 222.726562 46.621094 218.726562 48.828125 214.242188 49.832031 C 213.242188 50.058594 212.210938 50.222656 211.175781 50.324219 C 205.964844 50.839844 200.902344 49.761719 196.917969 47.292969 C 192.828125 44.761719 190.355469 41.074219 189.941406 36.90625 " fill-opacity="1" fill-rule="nonzero"/><path fill="#000000" d="M 339.199219 38.964844 C 339.46875 37.339844 338.421875 35.785156 336.816406 35.425781 L 336.648438 35.394531 C 325.75 33.574219 316.554688 36.339844 309.316406 43.605469 C 302.617188 50.332031 297.914062 60.878906 295.722656 74.097656 C 293.78125 85.808594 293.902344 99.261719 296.058594 111.980469 C 296.238281 113.050781 296.949219 113.929688 297.953125 114.335938 C 298.109375 114.402344 298.277344 114.453125 298.441406 114.492188 C 298.832031 114.578125 299.238281 114.585938 299.636719 114.519531 C 300.453125 114.382812 301.167969 113.933594 301.644531 113.257812 C 302.125 112.578125 302.3125 111.761719 302.171875 110.941406 C 300.199219 99.292969 300.019531 86.90625 301.671875 76.066406 C 303.554688 63.714844 307.71875 54.003906 313.710938 47.988281 C 319.449219 42.226562 326.824219 40.050781 335.632812 41.519531 C 337.316406 41.800781 338.917969 40.652344 339.199219 38.964844 " fill-opacity="1" fill-rule="nonzero"/><path fill="#000000" d="M 357.921875 36.90625 C 357.980469 36.308594 357.996094 35.710938 357.964844 35.113281 C 357.8125 31.980469 356.453125 28.898438 354.042969 26.289062 C 351.277344 23.289062 347.277344 21.082031 342.789062 20.082031 C 341.789062 19.855469 340.757812 19.6875 339.722656 19.585938 C 334.515625 19.070312 329.449219 20.148438 325.464844 22.617188 C 324.378906 23.289062 323.410156 24.046875 322.554688 24.871094 C 320.207031 27.144531 318.789062 29.945312 318.488281 33.007812 C 318.355469 34.382812 318.453125 35.765625 318.777344 37.113281 C 319.25 39.082031 320.199219 40.984375 321.585938 42.714844 C 321.828125 43.023438 322.09375 43.328125 322.367188 43.621094 C 325.136719 46.621094 329.132812 48.828125 333.621094 49.832031 C 334.621094 50.058594 335.652344 50.222656 336.6875 50.324219 C 341.894531 50.839844 346.960938 49.761719 350.945312 47.292969 C 355.03125 44.761719 357.511719 41.074219 357.921875 36.90625 " fill-opacity="1" fill-rule="nonzero"/><path fill="#000000" d="M 273.539062 227.683594 C 273.460938 227.683594 273.382812 227.683594 273.304688 227.683594 C 264.035156 227.605469 255.414062 223.132812 248.371094 214.746094 C 247.183594 213.324219 247.367188 211.207031 248.785156 210.011719 C 250.203125 208.816406 252.320312 209 253.511719 210.421875 C 259.253906 217.261719 266.113281 220.90625 273.355469 220.960938 L 273.527344 220.960938 C 280.953125 220.960938 288.542969 217.117188 294.382812 210.382812 C 295.597656 208.980469 297.71875 208.828125 299.117188 210.046875 C 300.519531 211.261719 300.671875 213.382812 299.453125 214.785156 C 295.9375 218.839844 291.914062 222.023438 287.496094 224.25 C 282.976562 226.527344 278.28125 227.683594 273.539062 227.683594 " fill-opacity="1" fill-rule="nonzero"/><path fill="#ffffff" d="M 238.621094 197.59375 C 222.546875 200.046875 207.199219 186.785156 204.410156 168.027344 C 201.625 149.269531 212.433594 132.011719 228.511719 129.558594 C 244.59375 127.101562 259.9375 140.367188 262.722656 159.125 C 265.511719 177.882812 254.699219 195.136719 238.621094 197.59375 " fill-opacity="1" fill-rule="nonzero"/><path fill="#000000" d="M 236.660156 184.390625 C 226.824219 185.890625 217.433594 177.773438 215.730469 166.296875 C 214.023438 154.820312 220.640625 144.261719 230.472656 142.761719 C 240.3125 141.257812 249.703125 149.375 251.410156 160.851562 C 253.117188 172.328125 246.5 182.886719 236.660156 184.390625 " fill-opacity="1" fill-rule="nonzero"/><path fill="#ffffff" d="M 228.601562 155.992188 C 227.875 151.089844 230.6875 146.597656 234.886719 145.957031 C 239.085938 145.320312 243.078125 148.769531 243.808594 153.667969 C 244.535156 158.566406 241.722656 163.054688 237.523438 163.695312 C 233.324219 164.335938 229.328125 160.890625 228.601562 155.992188 " fill-opacity="1" fill-rule="nonzero"/><path fill="#ffffff" d="M 241 167.410156 C 240.722656 165.523438 241.804688 163.800781 243.417969 163.554688 C 245.027344 163.308594 246.566406 164.636719 246.84375 166.515625 C 247.121094 168.398438 246.042969 170.121094 244.429688 170.371094 C 242.816406 170.617188 241.28125 169.289062 241 167.410156 " fill-opacity="1" fill-rule="nonzero"/><path fill="#ffffff" d="M 317.238281 197.851562 C 301.039062 199.242188 286.574219 185.007812 284.988281 166.105469 C 283.410156 147.199219 295.296875 130.691406 311.496094 129.296875 C 327.699219 127.902344 342.167969 142.144531 343.75 161.046875 C 345.332031 179.949219 333.441406 196.457031 317.238281 197.851562 " fill-opacity="1" fill-rule="nonzero"/><path fill="#000000" d="M 316.125 184.550781 C 306.210938 185.398438 297.363281 176.683594 296.394531 165.121094 C 295.421875 153.558594 302.699219 143.453125 312.613281 142.601562 C 322.523438 141.75 331.378906 150.464844 332.34375 162.03125 C 333.316406 173.59375 326.039062 183.695312 316.125 184.550781 " fill-opacity="1" fill-rule="nonzero"/><path fill="#ffffff" d="M 310.210938 155.992188 C 309.484375 151.089844 312.296875 146.597656 316.496094 145.957031 C 320.695312 145.320312 324.683594 148.769531 325.417969 153.667969 C 326.144531 158.566406 323.328125 163.054688 319.132812 163.695312 C 314.933594 164.335938 310.9375 160.890625 310.210938 155.992188 " fill-opacity="1" fill-rule="nonzero"/><path fill="#ffffff" d="M 322.609375 167.410156 C 322.328125 165.523438 323.410156 163.800781 325.027344 163.554688 C 326.636719 163.308594 328.171875 164.636719 328.453125 166.515625 C 328.730469 168.398438 327.652344 170.121094 326.039062 170.371094 C 324.421875 170.617188 322.890625 169.289062 322.609375 167.410156 " fill-opacity="1" fill-rule="nonzero"/></svg>